HIERARCHY
ROOT hip
{
	OFFSET 0.000000 0.000000 0.000000 
	CHANNELS 6 Xposition Yposition Zposition Xrotation Zrotation Yrotation
	JOINT abdomen
	{
		OFFSET 0.000000 3.402643 0.000000 
		CHANNELS 3 Xrotation Zrotation Yrotation
		JOINT chest
		{
			OFFSET 0.000000 8.438565 -0.680529 
			CHANNELS 3 Xrotation Zrotation Yrotation
			JOINT neck
			{
				OFFSET 0.000000 10.207942 -0.272212 
				CHANNELS 3 Xrotation Zrotation Yrotation
				JOINT head
				{
					OFFSET 0.000000 3.130431 0.000000 
					CHANNELS 3 Xrotation Zrotation Yrotation
					End Site
					{
						OFFSET 0.000000 3.130435 0.000000 
					}
				}
			}
			JOINT lCollar
			{
				OFFSET 3.470700 6.669187 -0.816635 
				CHANNELS 3 Yrotation Zrotation Xrotation
				JOINT lShldr
				{
					OFFSET 3.198488 0.000000 0.000000 
					CHANNELS 3 Zrotation Yrotation Xrotation
					JOINT lForeArm
					{
						OFFSET 10.139888 0.000000 0.000000 
						CHANNELS 3 Yrotation Zrotation Xrotation
						JOINT lHand
						{
							OFFSET 8.370511 0.000000 0.000000 
							CHANNELS 3 Zrotation Yrotation Xrotation
							End Site
							{
								OFFSET 4.083176 0.000000 0.000000 
							}
						}
					}
				}
			}
			JOINT rCollar
			{
				OFFSET -3.470700 6.669187 -0.816635 
				CHANNELS 3 Yrotation Zrotation Xrotation
				JOINT rShldr
				{
					OFFSET -3.198488 0.000000 0.000000 
					CHANNELS 3 Zrotation Yrotation Xrotation
					JOINT rForeArm
					{
						OFFSET -10.139888 0.000000 0.000000 
						CHANNELS 3 Yrotation Zrotation Xrotation
						JOINT rHand
						{
							OFFSET -8.370511 0.000000 0.000000 
							CHANNELS 3 Zrotation Yrotation Xrotation
							End Site
							{
								OFFSET -4.083176 0.000000 0.000000 
							}
						}
					}
				}
			}
		}
	}
	JOINT lThigh
	{
		OFFSET 5.308129 -1.633274 1.361059 
		CHANNELS 3 Xrotation Zrotation Yrotation
		JOINT lShin
		{
			OFFSET -2.041588 -20.007561 0.000000 
			CHANNELS 3 Xrotation Zrotation Yrotation
			JOINT lFoot
			{
				OFFSET 0.000000 -19.190928 -1.224953 
				CHANNELS 3 Xrotation Yrotation Zrotation
				End Site
				{
					OFFSET 0.000000 -2.449906 4.627600 
				}
			}
		}
	}
	JOINT rThigh
	{
		OFFSET -5.308129 -1.633274 1.361059 
		CHANNELS 3 Xrotation Zrotation Yrotation
		JOINT rShin
		{
			OFFSET 2.041588 -20.007561 0.000000 
			CHANNELS 3 Xrotation Zrotation Yrotation
			JOINT rFoot
			{
				OFFSET 0.000000 -19.190928 -1.224953 
				CHANNELS 3 Xrotation Yrotation Zrotation
				End Site
				{
					OFFSET 0.000000 -2.449906 4.627600 
				}
			}
		}
	}
}
MOTION
Frames: 10
Frame Time: 0.033333
-0.565834 50.696346 0.799448 0.210472 -1.121786 2.715279 0.000000 0.000000 0.000000 -5.293105 -0.164879 -6.709013 -2.149591 -1.572014 -1.025809 12.916687 0.175751 -1.054683 -3.521967 9.154817 6.304141 -39.897369 3.671705 -23.652119 -22.420443 12.878848 34.004143 -0.425919 6.163758 -8.113341 3.089181 -14.089146 8.026228 41.138828 1.107115 -37.824818 13.722190 -9.235206 71.139091 -1.395124 -9.805068 -8.733198 -1.650966 11.516909 12.247416 9.016662 -0.420975 -20.784157 -2.978720 0.207111 -1.887793 -2.226755 -8.032688 -16.494406 15.134024 0.377906 -1.006716 -6.904533 0.064241 -1.681327 
-1.133872 50.712444 0.712300 0.259307 -1.053345 2.891034 0.000000 0.000000 0.000000 -5.120070 -1.192558 -6.866790 -2.958847 -1.357279 -0.830539 12.678565 -0.214826 -0.742219 -3.521967 9.154817 6.304141 -38.117050 5.555346 -26.503763 -21.928930 11.857887 36.539253 -1.018318 5.488107 -8.029191 3.089181 -14.089146 8.026228 41.519123 -0.130917 -38.272987 13.394196 -9.018540 71.553673 -2.491544 -10.172793 -8.761242 -1.953097 11.753979 11.896120 8.889131 0.163293 -20.650593 -2.468811 0.192362 -2.133691 -2.255327 -7.413396 -16.227222 14.910453 0.527375 -1.662340 -7.404754 0.099007 -1.721617 
-1.623450 50.731415 0.580716 0.376946 -0.799627 3.076417 0.000000 0.000000 0.000000 -5.017407 -2.248813 -6.988130 -3.393987 -1.191321 -0.683852 12.189605 -0.224600 -0.537144 -3.521967 9.154817 6.304141 -36.766308 6.844738 -28.904564 -21.481205 11.203859 37.592693 -2.135082 5.452759 -7.962053 3.089181 -14.089146 8.026228 41.829136 -1.068699 -38.411316 13.126187 -8.861518 71.232132 -2.554422 -10.262569 -8.764468 -2.431685 11.662625 11.299802 9.008925 0.663238 -19.418009 -2.242841 0.201066 -2.381506 -2.391796 -7.082039 -16.052788 14.680499 0.624370 -2.139308 -7.797189 0.092717 -1.683590 
-1.965521 50.793388 0.500108 0.433230 -0.302312 3.027353 0.000000 0.000000 0.000000 -5.044962 -3.229140 -6.798286 -3.347620 -1.044856 -0.644780 11.700314 -0.136714 -0.459006 -3.521967 9.154817 6.304141 -35.980366 7.867597 -30.946388 -21.108597 10.770020 38.233925 -3.886782 5.438398 -7.855735 3.089181 -14.089146 8.026228 41.898415 -1.980903 -38.812851 12.942073 -8.780904 71.007103 -1.591270 -10.144234 -8.750732 -2.714531 11.245488 10.917501 9.605154 0.670911 -16.586901 -1.567562 0.225075 -2.934783 -2.304460 -7.142209 -16.016682 14.206479 0.654086 -2.059756 -7.721503 0.061388 -1.547529 
-2.141837 50.853012 0.436738 0.676596 0.263374 2.724670 0.000000 0.000000 0.000000 -5.517375 -3.882559 -6.323812 -2.880777 -0.849552 -0.664279 11.366914 0.039062 -0.400391 -3.521967 9.154817 6.304141 -35.968922 8.573651 -33.164562 -20.920755 10.658049 39.241276 -5.125179 5.665273 -7.805741 3.089181 -14.089146 8.026228 41.510063 -2.863781 -39.654381 12.851722 -8.795432 71.701134 -0.015234 -9.576049 -8.686171 -2.705104 10.524423 10.696029 9.958878 0.019680 -11.538877 -1.402638 0.248261 -3.365083 -2.422071 -7.371081 -15.781441 13.614808 0.426245 -1.972750 -7.640036 0.028261 -1.262244 
-2.190683 50.922565 0.408643 0.563321 0.731953 2.050988 0.000000 0.000000 0.000000 -5.777960 -4.013952 -5.609960 -2.002630 -0.820262 -0.634840 10.927135 0.097654 -0.351562 -3.521967 9.154817 6.304141 -36.429302 9.246184 -34.500618 -20.777782 10.585581 39.859234 -5.054451 5.439020 -7.781516 3.089181 -14.089146 8.026228 40.810787 -3.377529 -39.934582 12.777238 -8.799198 71.968452 -0.040770 -9.421637 -8.675714 -2.119392 9.617695 10.783997 9.852791 -0.889253 -9.272710 -0.945597 0.250452 -3.642994 -1.962816 -7.600682 -15.707688 12.605398 0.283122 -1.307203 -7.312973 0.006252 -1.003326 
-2.158124 50.983112 0.439823 0.220763 1.073917 1.357732 0.000000 0.000000 0.000000 -5.646332 -3.813876 -4.952522 -1.231828 -0.986292 -0.488377 10.182371 0.517568 -0.351548 -3.521967 9.154817 6.304141 -37.058289 10.007907 -35.471264 -20.672966 10.518950 39.853756 -4.452779 5.524098 -7.821221 3.089181 -14.089146 8.026228 39.877514 -3.838037 -39.919907 12.599967 -8.715401 71.270233 -0.741039 -9.819323 -8.723989 -1.386782 8.413226 10.532124 9.589931 -1.338420 -11.054222 -1.394783 0.258569 -3.235062 -1.250068 -7.802351 -15.682528 11.595122 0.143583 -0.648193 -6.936340 0.005433 -0.777938 
-2.119854 51.022343 0.469447 0.074624 1.044799 0.879116 0.000000 0.000000 0.000000 -5.778995 -3.271247 -4.480400 -0.626942 -0.976531 -0.459084 9.724006 0.468743 -0.312490 -3.521967 9.154817 6.304141 -37.631565 10.588573 -36.361160 -20.607790 10.490481 39.627750 -3.695116 6.415926 -7.961975 3.089181 -14.089146 8.026228 38.966419 -4.281811 -40.217129 12.477682 -8.710443 70.696037 -0.829462 -9.991818 -8.731470 -1.093592 7.515046 10.088754 9.491226 -1.358566 -12.590923 -2.240896 0.243894 -2.816735 -0.625498 -7.702840 -15.512517 10.432018 0.114354 -0.384294 -6.371916 -0.030765 -0.568494 
-2.087654 51.036037 0.504817 -0.053700 0.683576 0.410244 0.000000 0.000000 0.000000 -6.145445 -2.415698 -4.095564 0.182728 -1.044899 -0.380974 9.285512 0.390622 -0.234370 -3.521967 9.154817 6.304141 -37.976048 11.248958 -36.796425 -20.497347 10.456709 40.395119 -3.637359 5.941842 -7.922654 3.089181 -14.089146 8.026228 38.243053 -4.554464 -40.585678 12.354024 -8.686670 69.988327 -0.584895 -10.230484 -8.744354 -0.576719 7.263886 9.835276 9.006812 -1.260066 -11.411837 -2.914423 0.262113 -2.656002 -0.118552 -7.328783 -15.370717 9.512348 0.242679 -0.158393 -5.854486 -0.048552 -0.500605 
-2.078846 51.016155 0.517687 -0.048603 0.146484 0.087915 0.000000 0.000000 0.000000 -6.620983 -1.578373 -3.898231 0.864625 -0.810530 -0.371195 8.906088 0.136719 -0.068359 -3.521967 9.154817 6.304141 -37.873821 11.871778 -37.295387 -20.399189 10.434028 41.362492 -3.657685 5.478182 -7.863054 3.089181 -14.089146 8.026228 37.758091 -4.651093 -41.098995 12.270370 -8.731358 69.781883 -1.652135 -10.193455 -8.746105 -0.108001 7.631824 10.026383 8.199533 -1.191170 -10.102416 -3.355436 0.271544 -2.665571 0.067803 -6.826026 -15.167581 9.008516 0.407349 -0.168783 -5.533406 -0.021263 -0.466761 
